<svg width="512" height="512" viewBox="0 0 512 512" fill="none" xmlns="http://www.w3.org/2000/svg">
  <!-- Background Shape: Rounded Hexagon/Squircle -->
  <rect x="32" y="32" width="448" height="448" rx="128" fill="url(#paint0_linear)"/>
  
  <!-- Subtle Grid Pattern for "Toolkit" feel -->
  <path d="M32 128H480M32 256H480M32 384H480M128 32V480M256 32V480M384 32V480" stroke="white" stroke-opacity="0.1" stroke-width="2"/>

  <!-- Main Icon: Chat Bubble + Wrench -->
  <!-- Chat Bubble -->
  <path d="M380 236C380 304.483 324.483 360 256 360C238.252 360 221.439 356.262 206.275 349.522L132 374L156.478 299.725C149.738 284.561 146 267.748 146 250C146 181.517 201.517 126 270 126C338.483 126 394 181.517 394 250" fill="white" fill-opacity="0.15"/>
  <path d="M366 226C366 294.483 310.483 350 242 350C224.252 350 207.439 346.262 192.275 339.522L118 364L142.478 289.725C135.738 274.561 132 257.748 132 240C132 171.517 187.517 116 256 116C324.483 116 380 171.517 380 240Z" fill="white"/>

  <!-- Wrench Cutout/Icon -->
  <path d="M280 180C268.954 180 260 188.954 260 200C260 205.159 261.946 209.863 265.138 213.435L231.565 247.008C228.016 243.831 223.235 241.897 218 241.897C206.954 241.897 198 250.851 198 261.897C198 267.056 199.946 271.76 203.138 275.332L180 298.47L213.53 332L236.668 308.862C240.24 312.054 244.944 314 250.103 314C261.149 314 270.103 305.046 270.103 294C270.103 288.765 268.169 283.984 264.992 280.435L298.565 246.862C302.137 250.054 306.841 252 312 252C323.046 252 332 243.046 332 232C332 220.954 323.046 212 312 212C306.841 212 302.137 213.946 298.565 217.138L280.5 199.073L280 180Z" fill="#25D366"/>

  <defs>
    <linearGradient id="paint0_linear" x1="32" y1="32" x2="480" y2="480" gradientUnits="userSpaceOnUse">
      <stop stop-color="#075E54"/>
      <stop offset="1" stop-color="#25D366"/>
    </linearGradient>
  </defs>
</svg>
